<svg width="25" height="25" viewBox="0 0 25 25" fill="none" xmlns="http://www.w3.org/2000/svg">
<path d="M2.77778 25C2.01389 25 1.35995 24.728 0.815972 24.184C0.271991 23.64 0 22.9861 0 22.2222V2.77778C0 2.01389 0.271991 1.35995 0.815972 0.815972C1.35995 0.271991 2.01389 0 2.77778 0H11.1111C11.5046 0 11.8345 0.133102 12.1007 0.399306C12.3669 0.665509 12.5 0.99537 12.5 1.38889C12.5 1.78241 12.3669 2.11227 12.1007 2.37847C11.8345 2.64468 11.5046 2.77778 11.1111 2.77778H2.77778V22.2222H11.1111C11.5046 22.2222 11.8345 22.3553 12.1007 22.6215C12.3669 22.8877 12.5 23.2176 12.5 23.6111C12.5 24.0046 12.3669 24.3345 12.1007 24.6007C11.8345 24.8669 11.5046 25 11.1111 25H2.77778ZM19.6875 13.8889H9.72222C9.3287 13.8889 8.99884 13.7558 8.73264 13.4896C8.46644 13.2234 8.33333 12.8935 8.33333 12.5C8.33333 12.1065 8.46644 11.7766 8.73264 11.5104C8.99884 11.2442 9.3287 11.1111 9.72222 11.1111H19.6875L17.0833 8.50694C16.8287 8.25232 16.7014 7.93982 16.7014 7.56944C16.7014 7.19907 16.8287 6.875 17.0833 6.59722C17.338 6.31944 17.662 6.17477 18.0556 6.16319C18.4491 6.15162 18.7847 6.28472 19.0625 6.5625L24.0278 11.5278C24.3056 11.8056 24.4444 12.1296 24.4444 12.5C24.4444 12.8704 24.3056 13.1944 24.0278 13.4722L19.0625 18.4375C18.7847 18.7153 18.4549 18.8484 18.0729 18.8368C17.691 18.8252 17.3611 18.6806 17.0833 18.4028C16.8287 18.125 16.7072 17.7951 16.7188 17.4132C16.7303 17.0313 16.8634 16.713 17.1181 16.4583L19.6875 13.8889Z" fill="#111111"/>
</svg>
