<svg width="25" height="25" viewBox="0 0 25 25" fill="none" xmlns="http://www.w3.org/2000/svg">
<path d="M10.7143 14.2857H1.78571C1.27976 14.2857 0.855655 14.1146 0.513393 13.7723C0.171131 13.4301 0 13.006 0 12.5C0 11.994 0.171131 11.5699 0.513393 11.2277C0.855655 10.8854 1.27976 10.7143 1.78571 10.7143H10.7143V1.78571C10.7143 1.27976 10.8854 0.855655 11.2277 0.513393C11.5699 0.171131 11.994 0 12.5 0C13.006 0 13.4301 0.171131 13.7723 0.513393C14.1146 0.855655 14.2857 1.27976 14.2857 1.78571V10.7143H23.2143C23.7202 10.7143 24.1443 10.8854 24.4866 11.2277C24.8289 11.5699 25 11.994 25 12.5C25 13.006 24.8289 13.4301 24.4866 13.7723C24.1443 14.1146 23.7202 14.2857 23.2143 14.2857H14.2857V23.2143C14.2857 23.7202 14.1146 24.1443 13.7723 24.4866C13.4301 24.8289 13.006 25 12.5 25C11.994 25 11.5699 24.8289 11.2277 24.4866C10.8854 24.1443 10.7143 23.7202 10.7143 23.2143V14.2857Z" fill="#111111"/>
</svg>
