<svg width="73" height="73" viewBox="0 0 73 73" fill="none" xmlns="http://www.w3.org/2000/svg">
<path d="M25.5761 25.5744V65.7038H51.112V54.7594C51.112 53.7258 51.4616 52.8593 52.1608 52.1601C52.86 51.4609 53.7264 51.1113 54.76 51.1113H65.704V25.5744H25.5761ZM18.2801 65.7038V25.4832C18.2801 23.4767 19.0097 21.7743 20.4689 20.3758C21.9281 18.9774 23.6609 18.2782 25.6673 18.2782H65.704C67.7104 18.2782 69.428 18.9926 70.8568 20.4214C72.2856 21.8503 73 23.5679 73 25.5744V51.7497C73 52.7225 72.8176 53.6497 72.4528 54.5314C72.088 55.413 71.5712 56.1882 70.9024 56.8571L56.8576 70.9023C56.1888 71.5711 55.4136 72.088 54.532 72.4528C53.6504 72.8176 52.7232 73 51.7504 73H25.5761C23.5697 73 21.8521 72.2856 20.4233 70.8567C18.9945 69.4279 18.2801 67.7102 18.2801 65.7038ZM0.131328 15.5421C-0.233472 13.5356 0.161728 11.7267 1.31693 10.1155C2.47212 8.50424 4.05292 7.5162 6.05932 7.15139L45.64 0.128757C47.5856 -0.236055 49.3488 0.174359 50.9296 1.36C52.5104 2.54564 53.544 4.11129 54.0304 6.05696L54.6688 8.88425C54.9728 10.1003 54.7904 11.0731 54.1216 11.8027C53.4528 12.5324 52.6624 12.958 51.7504 13.0796C50.8384 13.2012 49.972 13.034 49.1512 12.578C48.3304 12.122 47.768 11.2859 47.464 10.0699L46.8256 7.3338L7.33612 14.3564L12.8081 45.7303C12.9905 46.7639 12.8081 47.6911 12.2609 48.512C11.7137 49.3328 10.9233 49.8344 9.88971 50.0168C8.85611 50.1992 7.94411 50.0016 7.15372 49.424C6.36332 48.8464 5.87692 48.0408 5.69452 47.0071L0.131328 15.5421Z" fill="#FFC736"/>
</svg>
