<svg width="25" height="25" viewBox="0 0 25 25" fill="none" xmlns="http://www.w3.org/2000/svg">
<path d="M10.9415 24.9358C10.4999 24.9358 10.1298 24.7865 9.83109 24.4878C9.53238 24.1891 9.38302 23.8189 9.38302 23.3773V14.0264L0.343784 2.49358C-0.0458379 1.97409 -0.104281 1.42862 0.168454 0.857169C0.44119 0.285723 0.91523 0 1.59058 0H23.4094C24.0848 0 24.5588 0.285723 24.8315 0.857169C25.1043 1.42862 25.0458 1.97409 24.6562 2.49358L15.617 14.0264V23.3773C15.617 23.8189 15.4676 24.1891 15.1689 24.4878C14.8702 24.7865 14.5001 24.9358 14.0585 24.9358H10.9415ZM12.5 12.9355L20.2145 3.11698H4.78548L12.5 12.9355Z" fill="#111111"/>
</svg>
