<svg width="25" height="27" viewBox="0 0 25 27" fill="none" xmlns="http://www.w3.org/2000/svg">
<path d="M10.9572 26.2605C10.3663 26.2605 9.85754 26.0636 9.4308 25.6696C9.00407 25.2757 8.74694 24.7943 8.6594 24.2253L8.36397 22.0588C8.07948 21.9494 7.81141 21.8181 7.55974 21.6649C7.30808 21.5117 7.06189 21.3476 6.82117 21.1725L4.78598 22.026C4.23888 22.2667 3.69179 22.2886 3.1447 22.0917C2.5976 21.8947 2.17087 21.5446 1.8645 21.0412L0.321691 18.3495C0.0153186 17.8462 -0.0722164 17.3101 0.0590861 16.7411C0.190389 16.1721 0.485819 15.7016 0.945378 15.3296L2.68514 14.0165C2.66325 13.8634 2.65231 13.7156 2.65231 13.5734V12.6871C2.65231 12.5449 2.66325 12.3971 2.68514 12.244L0.945378 10.9309C0.485819 10.5589 0.190389 10.0884 0.0590861 9.51943C-0.0722164 8.95046 0.0153186 8.4143 0.321691 7.91098L1.8645 5.21928C2.17087 4.71595 2.5976 4.36581 3.1447 4.16886C3.69179 3.9719 4.23888 3.99379 4.78598 4.23451L6.82117 5.08797C7.06189 4.9129 7.31355 4.74878 7.57616 4.59559C7.83876 4.4424 8.10137 4.3111 8.36397 4.20168L8.6594 2.03519C8.74694 1.46621 9.00407 0.984769 9.4308 0.590861C9.85754 0.196954 10.3663 0 10.9572 0H14.0428C14.6337 0 15.1425 0.196954 15.5692 0.590861C15.9959 0.984769 16.2531 1.46621 16.3406 2.03519L16.636 4.20168C16.9205 4.3111 17.1886 4.4424 17.4403 4.59559C17.6919 4.74878 17.9381 4.9129 18.1788 5.08797L20.214 4.23451C20.7611 3.99379 21.3082 3.9719 21.8553 4.16886C22.4024 4.36581 22.8291 4.71595 23.1355 5.21928L24.6783 7.91098C24.9847 8.4143 25.0722 8.95046 24.9409 9.51943C24.8096 10.0884 24.5142 10.5589 24.0546 10.9309L22.3149 12.244C22.3367 12.3971 22.3477 12.5449 22.3477 12.6871V13.5734C22.3477 13.7156 22.3258 13.8634 22.282 14.0165L24.0218 15.3296C24.4814 15.7016 24.7768 16.1721 24.9081 16.7411C25.0394 17.3101 24.9519 17.8462 24.6455 18.3495L23.0699 21.0412C22.7635 21.5446 22.3367 21.8947 21.7897 22.0917C21.2426 22.2886 20.6955 22.2667 20.1484 22.026L18.1788 21.1725C17.9381 21.3476 17.6864 21.5117 17.4238 21.6649C17.1612 21.8181 16.8986 21.9494 16.636 22.0588L16.3406 24.2253C16.2531 24.7943 15.9959 25.2757 15.5692 25.6696C15.1425 26.0636 14.6337 26.2605 14.0428 26.2605H10.9572ZM11.187 23.6345H13.7802L14.2398 20.1549C14.9182 19.9799 15.5473 19.7227 16.1272 19.3835C16.7072 19.0443 17.2378 18.634 17.7193 18.1526L20.969 19.4984L22.2492 17.2663L19.4262 15.1326C19.5356 14.8262 19.6122 14.5035 19.656 14.1643C19.6998 13.8251 19.7216 13.4804 19.7216 13.1303C19.7216 12.7801 19.6998 12.4354 19.656 12.0962C19.6122 11.757 19.5356 11.4343 19.4262 11.1279L22.2492 8.99422L20.969 6.76208L17.7193 8.14076C17.2378 7.63743 16.7072 7.21617 16.1272 6.87697C15.5473 6.53777 14.9182 6.28064 14.2398 6.10557L13.813 2.62605H11.2198L10.7602 6.10557C10.0818 6.28064 9.45269 6.53777 8.87277 6.87697C8.29285 7.21617 7.76217 7.62649 7.28073 8.10793L4.03099 6.76208L2.75079 8.99422L5.57379 11.0951C5.46437 11.4233 5.38778 11.7516 5.34401 12.0798C5.30025 12.4081 5.27836 12.7582 5.27836 13.1303C5.27836 13.4804 5.30025 13.8196 5.34401 14.1478C5.38778 14.4761 5.46437 14.8044 5.57379 15.1326L2.75079 17.2663L4.03099 19.4984L7.28073 18.1197C7.76217 18.6231 8.29285 19.0443 8.87277 19.3835C9.45269 19.7227 10.0818 19.9799 10.7602 20.1549L11.187 23.6345ZM12.5657 17.7258C13.8349 17.7258 14.9182 17.2772 15.8154 16.38C16.7126 15.4828 17.1612 14.3995 17.1612 13.1303C17.1612 11.861 16.7126 10.7778 15.8154 9.88052C14.9182 8.98328 13.8349 8.53467 12.5657 8.53467C11.2745 8.53467 10.1858 8.98328 9.2995 9.88052C8.41321 10.7778 7.97006 11.861 7.97006 13.1303C7.97006 14.3995 8.41321 15.4828 9.2995 16.38C10.1858 17.2772 11.2745 17.7258 12.5657 17.7258Z" fill="#111111"/>
</svg>
